<svg xmlns="http://www.w3.org/2000/svg" width="66" height="21" fill="none"><path fill="#A29691" d="M38.867 18.294c0 .22.184.394.403.384l3.254-.156a.385.385 0 0 0 .366-.384V7.856a.385.385 0 0 0-.4-.384l-3.254.13a.384.384 0 0 0-.369.384zm.504-12.746q.599.597 1.494.597.943 0 1.518-.597.597-.62.597-1.54 0-.897-.597-1.518-.576-.62-1.518-.62-.895 0-1.494.62-.597.621-.598 1.518 0 .92.598 1.54"/><path fill="#A29691" fill-rule="evenodd" d="M29.185 12.1v5.588a.385.385 0 0 1-.314.379l-3.345.625a.385.385 0 0 1-.456-.378V2.784c0-.213.173-.385.385-.385h6.558q1.655 0 2.897.62 1.263.621 1.976 1.701t.713 2.53q0 1.447-.736 2.55-.712 1.081-2 1.702-.556.258-1.195.405l4.364 5.94a.385.385 0 0 1-.4.602l-3.608-.875a.4.4 0 0 1-.208-.131L29.48 12.1zm0-2.943h2.253q1.012 0 1.54-.483.552-.505.552-1.356 0-.828-.552-1.333-.529-.53-1.54-.529h-2.253z" clip-rule="evenodd"/><path fill="#A29691" d="M48.345 19.019q-1.035 0-2.046-.276a9.4 9.4 0 0 1-1.862-.736 6.6 6.6 0 0 1-1.18-.843.365.365 0 0 1-.007-.527l1.645-1.68a.417.417 0 0 1 .566-.011 4 4 0 0 0 1.022.625 4.3 4.3 0 0 0 1.655.322q.506 0 .758-.138.276-.139.276-.391 0-.368-.39-.552-.368-.207-.99-.345-.598-.161-1.263-.367a7 7 0 0 1-1.288-.598 2.85 2.85 0 0 1-1.011-1.035q-.369-.666-.368-1.7 0-1.082.575-1.886.597-.827 1.655-1.287 1.057-.483 2.482-.483a7.6 7.6 0 0 1 2.759.506c.743.274 1.49.804 2.026 1.362a.36.36 0 0 1-.051.536l-1.903 1.464a.42.42 0 0 1-.535-.037c-.261-.235-.508-.358-.847-.475q-.666-.252-1.219-.253-.528 0-.758.161a.43.43 0 0 0-.23.391q0 .3.368.483.39.184.988.345.62.138 1.265.368a5.2 5.2 0 0 1 1.264.643q.62.39.988 1.058.39.666.391 1.724 0 1.679-1.287 2.666-1.288.966-3.448.966"/><path fill="#A29691" fill-rule="evenodd" d="M56.088 18.215q1.448.735 3.333.735 1.494 0 2.667-.482a5.3 5.3 0 0 0 1.776-1.163.365.365 0 0 0-.008-.518l-1.547-1.547c-.157-.157-.413-.147-.578.002q-.394.359-.862.559-.62.276-1.448.276-.873 0-1.471-.345a2.27 2.27 0 0 1-.92-1.012 3 3 0 0 1-.138-.354l7.586-.035a.37.37 0 0 0 .365-.293q.057-.283.072-.513.046-.368.046-.713 0-1.632-.758-2.896a5.1 5.1 0 0 0-2.07-2q-1.31-.735-3.01-.736-1.748 0-3.15.782a5.73 5.73 0 0 0-2.184 2.092q-.805 1.31-.805 3.011 0 1.725.828 3.058a5.77 5.77 0 0 0 2.276 2.091Zm.795-6.43a3 3 0 0 1 .124-.329q.3-.667.85-1.034.553-.369 1.311-.368.736 0 1.218.322.483.321.736.942.084.196.141.43l-4.38.036Z" clip-rule="evenodd"/><path fill="#A29691" d="M60.215 5.584V2.617h.755v2.967zm-.914-2.34v-.649h2.583v.65zm2.716 2.34V2.595h.543l1.147 1.733h-.257l1.142-1.733h.543v2.989h-.745V3.843l.117.034-.686 1.032h-.49l-.682-1.032.118-.034v1.74zM5.43 1.027c0-.228.17-.42.396-.449L8.54.24a.452.452 0 0 1 .508.449v8.927a.452.452 0 0 1-.508.448l-2.714-.339a.45.45 0 0 1-.396-.449zM0 2.158c0-.228.17-.42.396-.448l2.714-.34a.452.452 0 0 1 .509.45v7.116a.452.452 0 0 1-.509.45l-2.714-.34A.45.45 0 0 1 0 8.597zM14.132.995c.2.05.342.231.342.439v3.77c0 .229-.17.421-.396.45l-2.714.338a.452.452 0 0 1-.509-.448V.755c0-.294.277-.51.563-.439zm5.318 1.569a.45.45 0 0 0-.342-.438l-2.714-.679a.452.452 0 0 0-.562.439v3.431c0 .273.238.483.508.45l2.715-.34a.45.45 0 0 0 .396-.449V2.564Z"/><path fill="#A29691" d="m19.45 7.187-8.82.226a3.184 3.184 0 0 0 3.175 2.94h2.027v1.925L0 10.805v9.43l19.45-1.357z"/></svg>