<svg xmlns="http://www.w3.org/2000/svg" width="66" height="21" fill="none"><path fill="#A29691" d="M27.468 16.526h-4.44V3.861h4.192q2.255 0 3.215.817.977.8.977 2.238v.391q0 1.084-.427 1.759-.426.657-1.26.977.94.301 1.42.959.48.64.48 1.688v.48q0 1.58-.995 2.468-.977.888-3.162.888m-.213-10.96h-2.203V9.19h2.185q1.102 0 1.617-.408.515-.41.515-1.333v-.32q0-.798-.515-1.172-.498-.39-1.599-.39Zm-.089 5.347h-2.114v3.82h2.15q1.26 0 1.776-.41.533-.425.533-1.314v-.39q0-.89-.568-1.297-.569-.41-1.777-.409m8.811 4.21a3.2 3.2 0 0 0 .763-.088q.373-.107.675-.32.604-.39.924-1.048.337-.657.337-1.386V11.18q-.248.213-.692.373a9 9 0 0 1-1.084.302q-.799.177-1.208.337a2.6 2.6 0 0 0-.71.409 1.6 1.6 0 0 0-.391.497q-.124.285-.124.657v.072q0 .603.373.959.391.337 1.136.337Zm3.002 1.404-.231-1.848a3.6 3.6 0 0 1-1.333 1.492q-.87.57-2.185.569-1.455 0-2.22-.693-.764-.693-.764-1.936v-.16q0-.782.302-1.35a2.7 2.7 0 0 1 .853-.977q.178-.124.355-.213.196-.106.373-.196.39-.16.924-.284a38 38 0 0 1 1.367-.32q1.262-.266 1.741-.533.498-.283.498-.888v-.035q0-.675-.444-1.048-.427-.373-1.44-.373-1.065 0-1.598.48-.515.479-.55 1.35v.443H32.53v-.461q.09-1.564 1.155-2.487 1.083-.942 3.02-.942 2.114 0 3.02.888.923.87.923 2.416v7.106zm4.968 0h-2.025V6.313h1.652l.284 2.202q.231-1.226.924-1.758.71-.533 2.025-.533h.55v2.132h-.834q-.516 0-.924.07-.39.072-.675.214-.55.284-.764.923-.213.64-.213 1.706zm7.821.231q-2.149 0-3.268-1.155-1.101-1.172-1.102-3.357V10.7q0-.764.143-1.385.141-.64.408-1.155.57-1.012 1.563-1.528.994-.533 2.292-.533 1.9 0 3.038.96 1.136.96 1.243 2.984v.337h-2.167v-.337q-.089-1.137-.604-1.652-.516-.515-1.51-.515-1.065 0-1.688.71-.603.711-.604 2.132v1.492q0 1.298.587 2.007.604.71 1.687.71.995 0 1.51-.532.532-.533.64-1.652v-.409h2.167v.444q-.107 2.043-1.28 3.02-1.154.96-3.055.96m8.592-1.635a3.2 3.2 0 0 0 .763-.088q.373-.107.675-.32.604-.39.924-1.048.337-.657.337-1.386V11.18q-.249.213-.693.373a9 9 0 0 1-1.083.302q-.8.177-1.208.337a2.6 2.6 0 0 0-.71.409 1.6 1.6 0 0 0-.391.497q-.125.285-.125.657v.072q0 .603.373.959.39.337 1.137.337Zm3.001 1.404-.23-1.848a3.6 3.6 0 0 1-1.333 1.492q-.87.57-2.185.569-1.456 0-2.22-.693t-.764-1.936v-.16q0-.782.302-1.35a2.7 2.7 0 0 1 .852-.977 3 3 0 0 1 .356-.213 13 13 0 0 1 .373-.196 6 6 0 0 1 .923-.284q.551-.142 1.368-.32 1.261-.266 1.741-.533.498-.283.498-.888v-.035q0-.675-.445-1.048-.426-.373-1.439-.373-1.065 0-1.598.48-.516.479-.55 1.35v.443h-2.097v-.461q.09-1.564 1.155-2.487 1.083-.942 3.02-.942 2.113 0 3.02.888.923.87.923 2.416v7.106z"/><path fill="#A29691" fill-rule="evenodd" d="M2.62.7c.297-.297.7-.464 1.12-.464h9.036l5.568 5.567v11.929a1.584 1.584 0 0 1-1.585 1.584h-2.17v-1.722h2.033V6.516l-4.559-4.558H3.878v6.371H2.156V1.82c0-.42.167-.822.464-1.12" clip-rule="evenodd"/><path fill="#A29691" fill-rule="evenodd" d="M11.559 1.097h1.722v4.202h4.202V7.02h-5.924zM7.357 8.326l1.792 4.152 4.741.365-3.614 2.985 1.091 4.408-4.01-2.36-4.01 2.36 1.091-4.408-3.614-2.985 4.742-.365zm0 4.347-.622 1.442-1.524.117 1.16.958-.368 1.485 1.354-.797 1.355.797-.368-1.485 1.16-.957-1.524-.118z" clip-rule="evenodd"/></svg>